<svg xmlns="http://www.w3.org/2000/svg" xmlns:xlink="http://www.w3.org/1999/xlink" width="500" zoomAndPan="magnify" viewBox="0 0 375 374.999991" height="500" preserveAspectRatio="xMidYMid meet" version="1.0"><defs><g/><clipPath id="cb4896b1c7"><path d="M 14.15625 14.15625 L 360.65625 14.15625 L 360.65625 360.65625 L 14.15625 360.65625 Z M 14.15625 14.15625 " clip-rule="nonzero"/></clipPath><clipPath id="9823446b38"><path d="M 187.40625 14.15625 C 91.722656 14.15625 14.15625 91.722656 14.15625 187.40625 C 14.15625 283.089844 91.722656 360.65625 187.40625 360.65625 C 283.089844 360.65625 360.65625 283.089844 360.65625 187.40625 C 360.65625 91.722656 283.089844 14.15625 187.40625 14.15625 " clip-rule="nonzero"/></clipPath></defs><rect x="-37.5" width="450" fill="#ffffff" y="-37.499999" height="449.999989" fill-opacity="1"/><rect x="-37.5" width="450" fill="#ffffff" y="-37.499999" height="449.999989" fill-opacity="1"/><rect x="-37.5" width="450" fill="#a9d6e5" y="-37.499999" height="449.999989" fill-opacity="1"/><g clip-path="url(#cb4896b1c7)"><g clip-path="url(#9823446b38)"><path stroke-linecap="butt" transform="matrix(0.74962, 0, 0, 0.74962, 14.157151, 14.157146)" fill="none" stroke-linejoin="miter" d="M 231.115999 -0.00119553 C 103.473146 -0.00119553 -0.00120153 103.473152 -0.00120153 231.116005 C -0.00120153 358.758859 103.473146 462.233206 231.115999 462.233206 C 358.758853 462.233206 462.2332 358.758859 462.2332 231.116005 C 462.2332 103.473152 358.758853 -0.00119553 231.115999 -0.00119553 " stroke="#ffae57" stroke-width="76" stroke-opacity="1" stroke-miterlimit="4"/></g></g><g fill="#ffae57" fill-opacity="1"><g transform="translate(104.686229, 287.240247)"><g><path d="M 55.703125 4.515625 C 37.234375 4.515625 23.332031 1.304688 14 -5.109375 C 4.664062 -11.535156 0 -19.367188 0 -28.609375 C 0 -35.429688 2.054688 -40.898438 6.171875 -45.015625 C 10.285156 -49.128906 15.753906 -51.1875 22.578125 -51.1875 C 24.179688 -51.1875 25.785156 -51.035156 27.390625 -50.734375 C 29.003906 -50.429688 30.113281 -50.28125 30.71875 -50.28125 L 34.625 -49.6875 L 34.625 -4.515625 C 36.03125 -3.710938 37.4375 -3.210938 38.84375 -3.015625 C 42.257812 -2.003906 45.875 -1.5 49.6875 -1.5 C 73.769531 -1.5 85.8125 -21.070312 85.8125 -60.21875 L 85.8125 -201.75 L 67.75 -206.265625 L 67.75 -210.78125 L 153.5625 -210.78125 L 153.5625 -206.265625 L 135.5 -201.75 L 135.5 -60.21875 C 135.5 -39.34375 128.972656 -23.332031 115.921875 -12.1875 C 102.878906 -1.050781 82.804688 4.515625 55.703125 4.515625 Z M 55.703125 4.515625 "/></g></g></g></svg>