<svg xmlns="http://www.w3.org/2000/svg" xmlns:xlink="http://www.w3.org/1999/xlink" width="500" zoomAndPan="magnify" viewBox="0 0 375 374.999991" height="500" preserveAspectRatio="xMidYMid meet" version="1.0"><defs><g/></defs><g fill="#0a2463" fill-opacity="1"><g transform="translate(154.495805, 227.249985)"><g><path d="M 22.203125 1.796875 C 14.835938 1.796875 9.296875 0.519531 5.578125 -2.03125 C 1.859375 -4.59375 0 -7.71875 0 -11.40625 C 0 -14.125 0.816406 -16.300781 2.453125 -17.9375 C 4.097656 -19.582031 6.28125 -20.40625 9 -20.40625 C 9.632812 -20.40625 10.269531 -20.34375 10.90625 -20.21875 C 11.550781 -20.101562 11.992188 -20.046875 12.234375 -20.046875 L 13.796875 -19.796875 L 13.796875 -1.796875 C 14.359375 -1.472656 14.921875 -1.273438 15.484375 -1.203125 C 16.835938 -0.796875 18.273438 -0.59375 19.796875 -0.59375 C 29.398438 -0.59375 34.203125 -8.394531 34.203125 -24 L 34.203125 -80.40625 L 27 -82.203125 L 27 -84 L 61.203125 -84 L 61.203125 -82.203125 L 54 -80.40625 L 54 -24 C 54 -15.675781 51.398438 -9.296875 46.203125 -4.859375 C 41.003906 -0.421875 33.003906 1.796875 22.203125 1.796875 Z M 22.203125 1.796875 "/></g></g></g></svg>