<?xml version="1.0" encoding="UTF-8" standalone="no"?>
<svg
   width="500"
   zoomAndPan="magnify"
   viewBox="0 0 375 374.999991"
   height="500"
   preserveAspectRatio="xMidYMid meet"
   version="1.0"
   id="svg26"
   sodipodi:docname="j2.svg"
   inkscape:version="1.2.2 (b0a84865, 2022-12-01)"
   xmlns:inkscape="http://www.inkscape.org/namespaces/inkscape"
   xmlns:sodipodi="http://sodipodi.sourceforge.net/DTD/sodipodi-0.dtd"
   xmlns="http://www.w3.org/2000/svg"
   xmlns:svg="http://www.w3.org/2000/svg">
  <sodipodi:namedview
     id="namedview28"
     pagecolor="#ffffff"
     bordercolor="#000000"
     borderopacity="0.25"
     inkscape:showpageshadow="2"
     inkscape:pageopacity="0.0"
     inkscape:pagecheckerboard="0"
     inkscape:deskcolor="#d1d1d1"
     showgrid="false"
     inkscape:zoom="0.81454783"
     inkscape:cx="72.432824"
     inkscape:cy="250.4457"
     inkscape:window-width="1309"
     inkscape:window-height="456"
     inkscape:window-x="0"
     inkscape:window-y="38"
     inkscape:window-maximized="0"
     inkscape:current-layer="svg26" />
  <defs
     id="defs10">
    <g
       id="g2" />
    <clipPath
       id="255d97ab6f">
      <path
         d="M 114.90625 114.90625 L 260 114.90625 L 260 260 L 114.90625 260 Z M 114.90625 114.90625 "
         clip-rule="nonzero"
         id="path4" />
    </clipPath>
    <clipPath
       id="ae16441efe">
      <path
         d="M 187.5 260.09375 C 168.117188 260.09375 149.867188 252.550781 136.171875 238.828125 C 122.449219 225.132812 114.90625 206.882812 114.90625 187.5 C 114.90625 168.117188 122.449219 149.867188 136.171875 136.171875 C 149.867188 122.449219 168.117188 114.90625 187.5 114.90625 C 206.882812 114.90625 225.132812 122.449219 238.828125 136.171875 C 252.550781 149.898438 260.09375 168.117188 260.09375 187.5 C 260.09375 206.882812 252.550781 225.132812 238.828125 238.828125 C 225.132812 252.550781 206.882812 260.09375 187.5 260.09375 M 187.5 119.257812 C 169.277344 119.257812 152.128906 126.367188 139.25 139.25 C 126.367188 152.128906 119.257812 169.277344 119.257812 187.5 C 119.257812 205.722656 126.367188 222.871094 139.25 235.75 C 152.128906 248.632812 169.277344 255.742188 187.5 255.742188 C 205.722656 255.742188 222.871094 248.632812 235.75 235.75 C 248.632812 222.871094 255.742188 205.722656 255.742188 187.5 C 255.742188 169.277344 248.632812 152.128906 235.75 139.25 C 222.871094 126.367188 205.722656 119.257812 187.5 119.257812 "
         clip-rule="nonzero"
         id="path7" />
    </clipPath>
  </defs>
  <g
     id="g141">
    <g
       clip-path="url(#255d97ab6f)"
       id="g16">
      <g
         clip-path="url(#ae16441efe)"
         id="g14">
        <path
           fill="#0a2463"
           d="M 114.90625 114.90625 L 259.980469 114.90625 L 259.980469 259.980469 L 114.90625 259.980469 Z M 114.90625 114.90625 "
           fill-opacity="1"
           fill-rule="nonzero"
           id="path12" />
      </g>
    </g>
    <g
       fill="#0a2463"
       fill-opacity="1"
       id="g24">
      <g
         transform="translate(154.495805, 227.249985)"
         id="g22">
        <g
           id="g20">
          <path
             d="M 22.203125 1.796875 C 14.835938 1.796875 9.296875 0.519531 5.578125 -2.03125 C 1.859375 -4.59375 0 -7.71875 0 -11.40625 C 0 -14.125 0.816406 -16.300781 2.453125 -17.9375 C 4.097656 -19.582031 6.28125 -20.40625 9 -20.40625 C 9.632812 -20.40625 10.269531 -20.34375 10.90625 -20.21875 C 11.550781 -20.101562 11.992188 -20.046875 12.234375 -20.046875 L 13.796875 -19.796875 L 13.796875 -1.796875 C 14.359375 -1.472656 14.921875 -1.273438 15.484375 -1.203125 C 16.835938 -0.796875 18.273438 -0.59375 19.796875 -0.59375 C 29.398438 -0.59375 34.203125 -8.394531 34.203125 -24 L 34.203125 -80.40625 L 27 -82.203125 L 27 -84 L 61.203125 -84 L 61.203125 -82.203125 L 54 -80.40625 L 54 -24 C 54 -15.675781 51.398438 -9.296875 46.203125 -4.859375 C 41.003906 -0.421875 33.003906 1.796875 22.203125 1.796875 Z M 22.203125 1.796875 "
             id="path18" />
        </g>
      </g>
    </g>
  </g>
</svg>
